<?xml version="1.0" encoding="utf-8"?>
<!-- Generator: Adobe Illustrator 22.1.0, SVG Export Plug-In . SVG Version: 6.00 Build 0)  -->
<svg version="1.1" id="Layer_1" xmlns="http://www.w3.org/2000/svg" xmlns:xlink="http://www.w3.org/1999/xlink" x="0px" y="0px"
	 viewBox="0 0 367.5 56.5" style="enable-background:new 0 0 367.5 56.5;" xml:space="preserve">
<style type="text/css">
	.st0{fill:#003C6C;}
	.st1{fill:#FFFFFF;}
	.st2{fill:none;}
	.st3{fill:#F8B307;}
</style>
<title>logo</title>
<polyline class="st0" points="141.8,4 187.3,4 187.3,50.3 141.8,50.3 141.8,4.8 "/>
<polyline class="st1" points="169.4,3.4 169.4,27.8 182,23.1 182,3.5 "/>
<polyline class="st1" points="147.3,13 147.3,36.4 157,32.6 157,8.3 147.3,13 "/>
<polyline class="st1" points="157.8,32.9 165.4,30.4 165.4,50.5 157.8,50.5 157.8,32.9 "/>
<rect x="137.5" y="1" class="st2" width="53.6" height="52.2"/>
<path class="st3" d="M357.7,50.3h9.9v-1.9h-6.6l6.2-44.1h-9V6h5.8L357.7,50.3z M345.7,4.3H343V46c0,2.6,1.2,4.7,5,4.7s4.9-2,4.9-4.5
	V4.3h-2.7v42.9c0.1,1.2-0.8,2.2-2,2.3c-0.1,0-0.2,0-0.2,0c-1.2,0.1-2.2-0.8-2.3-2c0-0.1,0-0.2,0-0.3L345.7,4.3z M338.3,50.3V30.7
	c0.1-1.2-0.2-2.5-1-3.4c-0.5-0.6-1.2-1.1-1.9-1.5c0.8-0.4,1.6-1,2.2-1.7c0.5-0.6,0.7-1.4,0.7-2.2V9.6c0-1.6,0-3-1.3-4.1
	c-1.2-0.8-2.6-1.2-4-1.1h-4.8v45.9h2.8V26.7h1.2c0.9-0.1,1.8,0.2,2.4,0.8c0.8,0.6,1,2,1,3.4v19.5H338.3z M335.6,8.7V21
	c0.1,1.1-0.2,2.2-0.7,3.2c-0.7,0.8-1.7,1.2-2.7,1.2H331V5.6h1.6c0.7,0,1.4,0.1,2,0.4C335.4,6.5,335.6,7.4,335.6,8.7L335.6,8.7z
	 M320.4,35.5v11.7c0.1,1.2-0.8,2.2-2,2.2c-0.1,0-0.2,0-0.2,0c-1.3,0.1-2.4-0.9-2.4-2.2c0,0,0,0,0-0.1v-39c0-1.4,0.4-3,2.4-3
	s2.3,1.6,2.3,3v10.1h2.6V9.6c0-2.8-0.3-5.5-4.9-5.5S313,6.8,313,9.6v36.5c0,2.5,1.4,4.5,5.1,4.5s4.9-2.1,4.9-4.6V35.5H320.4z
	 M301.4,9.6c0-2.8-0.2-5.5-4.9-5.5s-5.1,2.8-5.1,5.6v40.6h2.7V26.7h4.7v23.6h2.6L301.4,9.6z M294.1,24.9V8.1c0-1.4,0.4-3,2.4-3
	c2.2,0,2.3,1.6,2.3,3v16.7H294.1z M287.6,4.3h-10.4V6h3.8v44.3h2.7V6h3.9L287.6,4.3z M265.8,4.3h-2.4v46h2.6V16.9l4.8,24.7v8.8h2.6
	v-46h-2.6v27.8L265.8,4.3z M258.4,9.6c0-2.8-0.2-5.5-4.9-5.5c-4.6,0-5.1,2.8-5.1,5.6v40.6h2.7V26.7h4.7v23.6h2.6L258.4,9.6z
	 M251,24.9V8.1c0-1.4,0.4-3,2.4-3c2.2,0,2.3,1.6,2.3,3v16.7H251z M243.5,45.1v-8.7c0-1.8-0.4-3.6-1-5.4c-0.5-1.7-1.2-3.3-2-4.9
	l-2.5-5.2c-0.7-1.5-1.3-3-1.5-4.6c-0.3-1.7-0.5-3.5-0.4-5.2v-3c0-1.3,0.2-2.9,2.4-3c2,0,2.3,1.6,2.3,3v10h2.7V9.6
	c0-2.8-0.3-5.6-5.1-5.6s-5,2.8-5,5.5v2.2c-0.1,1.7,0.1,3.4,0.4,5c0.2,1.7,0.8,3.3,1.5,4.9l2.7,5.6c1,1.7,1.7,3.6,2.2,5.5
	c0.4,1.2,0.6,2.5,0.6,3.8v10c0,1.3-0.1,3-2.3,3c-2,0-2.4-1.6-2.4-3v-11h-2.6V45c0,2.8,0.4,5.6,5.1,5.6S243.5,47.9,243.5,45.1
	L243.5,45.1z M219,35.5v11.7c0.1,1.2-0.8,2.2-2,2.2c-0.1,0-0.2,0-0.2,0c-1.3,0.1-2.4-0.9-2.4-2.2c0,0,0,0,0-0.1v-39
	c0-1.4,0.4-3,2.4-3s2.3,1.6,2.3,3v10.1h2.7V9.6c0-2.8-0.3-5.5-4.9-5.5s-5.1,2.8-5.1,5.6v36.5c0,2.5,1.4,4.5,5.1,4.5s4.9-2.1,4.9-4.7
	V35.5H219z M199.6,4.3h-2.7V46c0,2.6,1.2,4.7,5,4.7s4.9-2,4.9-4.5V4.3h-2.7v42.9c0.1,1.2-0.9,2.2-2,2.3c-0.1,0-0.1,0-0.2,0
	c-1.2,0.1-2.2-0.8-2.3-2c0-0.1,0-0.2,0-0.3L199.6,4.3z"/>
<path class="st0" d="M121.3,10.8v15.5h3.2v-8.7c-0.1-0.9,0-1.8,0.2-2.6c0.1-0.4,0.3-0.8,0.5-1.2c0.4-0.5,1.1-0.9,1.8-0.8
	c0.8-0.1,1.6,0.5,1.7,1.3c0,0,0,0,0,0.1c0.1,0.7,0.2,1.4,0.1,2.1v9.8h3.2v-10c0.1-1.1,0-2.1-0.2-3.1c-0.1-0.6-0.4-1.2-0.8-1.6
	c-0.8-0.8-1.8-1.2-2.9-1.1c-1.9,0-3,0.8-3.9,2.8v-2.4H121.3z M117.6,8.7V5.3h-3.4v3.4L117.6,8.7z M114.4,10.8v15.5h3.2V10.8H114.4z
	 M101,5.3v21h3.2v-5l2.1-2.8l3.1,7.8h3.4l-4.5-10.1l4-5.3h-3.2l-5,6.9V5.3H101z M98,14.4c-0.8-2.7-2.4-4-5-4c-2.7-0.2-5,1.9-5.2,4.5
	c0,0.1,0,0.2,0,0.2c0,1.1,0.5,2.2,1.3,3c1,0.8,2.2,1.4,3.5,1.7c0.7,0.2,1.4,0.4,2,0.8c0.5,0.3,0.8,0.9,0.8,1.5c0,1.2-0.9,2-2.4,2
	c-1.7,0-2.6-0.8-3-2.7L87.3,22c0.1,1.1,0.6,2.2,1.4,3c1.2,1,2.6,1.5,4.1,1.4c3.4,0,5.7-2,5.7-4.9c0-1.2-0.5-2.4-1.5-3.2
	c-0.9-0.6-2-1-3-1.3c-0.8-0.2-1.6-0.5-2.3-0.9c-0.5-0.3-0.8-0.9-0.8-1.5c0-1,0.8-1.9,1.9-1.9c0,0,0.1,0,0.1,0c1.3,0,2.1,0.7,2.6,2.3
	L98,14.4z M81.9,18.7v0.8c0,2.8-1.3,4.8-3,4.8c-1.3,0-2.1-0.8-2.1-2.3c0-2.2,1.4-3.3,4.2-3.3C81.3,18.6,81.6,18.7,81.9,18.7
	L81.9,18.7z M77.1,15.1c0.3-1.6,1.1-2.4,2.5-2.4c1.6,0,2.3,0.9,2.3,3.3v0.6c-0.2,0-0.5,0-0.7,0c-3.4,0-5.6,0.7-6.7,2.2
	c-0.7,1-1.1,2.1-1.1,3.3c-0.2,2.3,1.5,4.3,3.7,4.5c0.2,0,0.4,0,0.6,0c1.2,0.1,2.4-0.4,3.2-1.2c0.5-0.5,0.9-1.1,1.2-1.7
	c0,0.9,0,1.7,0.2,2.6h3c-0.3-1.4-0.3-2.8-0.2-4.3v-5.3c0-2.2-0.1-3-0.5-3.9c-0.3-0.6-0.8-1.2-1.4-1.5c-1-0.6-2.2-0.9-3.4-0.9
	c-3.2,0-5.3,1.6-5.8,4.4L77.1,15.1z M60.6,23.5v-6.8h2.5c1-0.1,2,0.1,2.8,0.6c0.9,0.7,1.3,1.7,1.3,2.8c0,2.2-1.3,3.4-3.8,3.4
	L60.6,23.5z M60.6,14V8h2.5c2.4,0,3.4,0.9,3.4,3s-1.1,3-3.8,3H60.6z M57.3,5.3v21h6.4c2.4,0,3.6-0.2,4.7-1c1.6-1.1,2.5-2.9,2.4-4.8
	c0.1-1.5-0.5-2.9-1.4-4c-0.6-0.7-1.5-1.1-2.4-1.3c2-0.6,3.3-2.5,3.1-4.6c0.1-1.8-0.7-3.5-2.1-4.5c-1-0.7-1.8-0.8-4.4-0.8H57.3z"/>
<path class="st0" d="M125.1,49.9c0.9,0.1,1.1,0.1,2.6,0.1c0.9-0.1,1.8,0.1,2.7,0.4c0.5,0.3,0.8,0.9,0.8,1.5c0,1.4-1.3,2.1-3.7,2.1
	c-2.6,0-3.7-0.7-3.7-2.2C123.7,51,124.3,50.2,125.1,49.9z M127.2,36.8c1.4,0,2.2,1.1,2.2,3s-0.8,3-2.2,3s-2.2-1.1-2.2-3
	S125.8,36.8,127.2,36.8L127.2,36.8z M133.9,32.6c-0.3,0-0.7-0.1-1-0.1c-1.8,0-2.5,0.7-2.9,2.9c-0.9-0.5-2-0.7-3-0.7
	c-3.2,0-5.4,2.1-5.4,5.1c-0.1,1.6,0.6,3.1,2,4c-1.6,0.8-2.3,1.8-2.3,3.1c0,1.1,0.7,2.1,1.7,2.5c-1.4,0.3-2.4,1.6-2.3,3
	c0,2.5,2.2,3.9,6.2,3.9c4.6,0,7.1-1.7,7.1-4.8c0.1-1.7-0.9-3.2-2.5-3.7c-1.1-0.4-2.3-0.6-3.5-0.6h-1.6c-1.7-0.1-2.3-0.4-2.3-1.3
	c0-0.6,0.3-1,1.2-1.3c0.6,0.2,1.3,0.3,2,0.3c3.2,0,5.4-2.1,5.4-5c0-1.2-0.4-2.4-1.2-3.3c0.2-1.2,0.7-1.7,1.7-1.7
	c0.2,0,0.5,0,0.7,0.1L133.9,32.6z M107.4,35.1v15.5h3.2v-8.7c-0.1-0.9,0-1.8,0.2-2.6c0.1-0.4,0.3-0.8,0.5-1.2
	c0.4-0.5,1.1-0.9,1.8-0.8c0.8-0.1,1.6,0.5,1.7,1.3c0,0,0,0.1,0,0.1c0.1,0.7,0.2,1.4,0.1,2.1v9.8h3.2v-10c0.1-1.1,0-2.1-0.2-3.1
	c-0.1-0.6-0.4-1.2-0.8-1.6c-0.8-0.8-1.8-1.2-2.9-1.1c-1.9,0-3,0.8-3.9,2.8v-2.4L107.4,35.1z M103.7,33v-3.4h-3.4V33L103.7,33z
	 M100.5,35.1v15.5h3.2V35.1L100.5,35.1z M91.9,35.1v15.5h3.2v-7.9c0-3,1.2-4.6,3.4-4.6c0.2,0,0.3,0,0.6,0.1v-3.3
	c-0.2,0-0.4-0.1-0.6-0.1c-0.9,0-1.7,0.4-2.3,1c-0.8,0.8-1.3,1.7-1.5,2.8v-3.4L91.9,35.1z M86,41.2h-5.4c0.2-2.7,1.1-4.1,2.7-4.1
	S86,38.5,86,41.2L86,41.2z M89.2,43.3c0-3.3-0.2-4.2-1.1-5.9c-0.9-1.7-2.8-2.8-4.7-2.7c-3.8,0-6.2,3.1-6.2,8.3c0,5,2.2,7.9,6.1,7.9
	c3.1,0,5-1.6,5.8-4.9l-2.9-0.4c-0.5,2.1-1.3,2.9-2.7,2.9c-1.4,0-2.6-1-2.8-2.4c-0.2-0.9-0.3-1.9-0.2-2.8L89.2,43.3z M72.1,41.1h-5.4
	c0.2-2.7,1.1-4.1,2.7-4.1S72.1,38.5,72.1,41.1L72.1,41.1z M75.3,43.3c0-3.3-0.2-4.2-1.1-5.9c-0.9-1.7-2.8-2.8-4.7-2.7
	c-3.8,0-6.1,3.1-6.1,8.3c0,5,2.2,7.9,6.1,7.9c3.1,0,5-1.6,5.8-4.9l-2.9-0.4c-0.5,2.1-1.3,2.9-2.7,2.9c-1.4,0-2.6-1-2.8-2.4
	c-0.2-0.9-0.3-1.9-0.2-2.8H75.3z M49.6,35.1v15.5h3.2v-8.7c-0.1-0.9,0-1.8,0.2-2.6c0.1-0.4,0.3-0.8,0.5-1.2c0.4-0.6,1.1-0.9,1.8-0.8
	c0.8-0.1,1.6,0.5,1.7,1.3c0,0,0,0,0,0.1c0.1,0.7,0.2,1.4,0.1,2.1v9.8h3.2v-10c0.1-1.1,0-2.1-0.2-3.1c-0.1-0.6-0.4-1.2-0.8-1.6
	c-0.8-0.8-1.8-1.2-2.9-1.1c-1.9,0-3,0.8-3.9,2.8v-2.4H49.6z M45.9,33v-3.4h-3.4V33L45.9,33z M42.7,35.1v15.5h3.2V35.1H42.7z
	 M32,49.9C33,50,33.1,50,34.6,50c0.9-0.1,1.8,0.1,2.7,0.4c0.5,0.3,0.7,0.9,0.7,1.5c0,1.4-1.3,2.1-3.7,2.1c-2.6,0-3.7-0.7-3.7-2.2
	C30.6,51,31.2,50.2,32,49.9z M34.1,36.8c1.4,0,2.2,1.1,2.2,3s-0.8,3-2.2,3s-2.2-1.1-2.2-3S32.6,36.8,34.1,36.8L34.1,36.8z
	 M40.8,32.6c-0.3,0-0.7-0.1-1-0.1c-1.8,0-2.5,0.7-2.9,2.9c-0.9-0.5-2-0.7-3-0.7c-3.2,0-5.4,2.1-5.4,5.1c-0.1,1.6,0.6,3.1,2,4
	c-1.6,0.8-2.3,1.8-2.3,3.1c0,1.1,0.7,2.1,1.8,2.5c-1.4,0.3-2.4,1.6-2.3,3c0,2.5,2.2,3.9,6.2,3.9c4.6,0,7.1-1.7,7.1-4.8
	c0.1-1.7-0.9-3.2-2.5-3.7c-1.2-0.4-2.4-0.5-3.6-0.5h-1.6C31.6,47.2,31,46.9,31,46c0-0.6,0.3-1,1.2-1.3c0.6,0.2,1.3,0.3,2,0.3
	c3.2,0,5.4-2.1,5.4-5c0-1.2-0.4-2.4-1.2-3.3c0.2-1.2,0.7-1.7,1.7-1.7c0.2,0,0.5,0,0.7,0.1L40.8,32.6z M14.3,35.1v15.5h3.2v-8.7
	c-0.1-0.9,0-1.8,0.2-2.6c0.1-0.4,0.3-0.8,0.5-1.2c0.4-0.6,1.1-0.9,1.7-0.8c0.8-0.1,1.6,0.5,1.7,1.3c0,0,0,0,0,0.1
	c0.1,0.7,0.2,1.4,0.1,2.1v9.8h3.2v-10c0.1-1.1,0-2.1-0.2-3.1c-0.1-0.6-0.4-1.2-0.8-1.6c-0.8-0.8-1.8-1.2-2.9-1.1
	c-1.9,0-3,0.8-3.9,2.8v-2.4H14.3z M0,29.6v20.9h12.1v-2.8H3.5v-6.6h6.7v-2.8H3.5v-6H12v-2.8L0,29.6z"/>
<rect x="0" y="0.1" class="st2" width="367.5" height="56.3"/>
</svg>
